<svg width="98" height="56" viewBox="0 0 98 56" fill="none" xmlns="http://www.w3.org/2000/svg">
<path d="M96.5 49C91.8056 45.5859 92.0995 46.8099 87.9444 49.7778C87.0089 50.446 83.4504 54.4004 82.5 53.5556C78.86 50.32 76.6635 34.1207 72.5 41.5556C70.3046 45.4759 63.3722 52.803 59.7222 45.2222C58.4571 42.5946 53.3318 32.825 51.5 30.5C48.7141 26.964 49.5212 36.8677 47 39.3889C42.5274 43.8615 37.6722 38.436 34 34.4444C31.2222 31.4251 29.0737 23.508 27.5 18C26.4861 14.4512 23.4039 25.2756 22.5 25.7778C16.4347 29.1474 17.6239 26.5814 12.5 22.5556C9.69702 20.3532 3.55034 5.10069 2 2" stroke="#FF0000" stroke-width="3" stroke-linecap="round"/>
</svg>
