<?xml version="1.0" encoding="UTF-8" standalone="no"?>
<!DOCTYPE svg PUBLIC "-//W3C//DTD SVG 1.1//EN" "http://www.w3.org/Graphics/SVG/1.1/DTD/svg11.dtd">
<svg width="100%" height="100%" viewBox="0 0 2732 2048" version="1.1" xmlns="http://www.w3.org/2000/svg" xmlns:xlink="http://www.w3.org/1999/xlink" xml:space="preserve" xmlns:serif="http://www.serif.com/" style="fill-rule:evenodd;clip-rule:evenodd;stroke-linejoin:round;stroke-miterlimit:2;">
    <g transform="matrix(1,0,0,1,38.2908,2.29616)">
        <g id="_6---FINANCES" serif:id="6 - FINANCES">
            <g id="DEBIT-CARD" serif:id="DEBIT CARD" transform="matrix(1,0,0,1,1.80516,-5.13466)">
                <g>
                    <g transform="matrix(0.966634,0,0,1,37.5542,0)">
                        <path d="M1125.54,1224.86C1125.54,1199.83 1104.51,1179.51 1078.62,1179.51L408.362,1179.51C382.465,1179.51 361.44,1199.83 361.44,1224.86L361.44,1584.4C361.44,1609.43 382.465,1629.75 408.362,1629.75L1078.62,1629.75C1104.51,1629.75 1125.54,1609.43 1125.54,1584.4L1125.54,1224.86Z" style="fill:rgb(138,187,184);"/>
                    </g>
                    <path d="M515.072,1542.04L438.849,1542.04L438.849,1595.93L515.072,1595.93L515.072,1542.04ZM790.98,1441.34L438.673,1441.34L438.673,1517.8L790.98,1517.8L790.98,1441.34ZM1071.39,1441.34L890.554,1441.34L890.554,1517.8L1071.39,1517.8L1071.39,1441.34Z" style="fill:white;"/>
                    <rect x="386.935" y="1305.06" width="738.604" height="105.783"/>
                </g>
                <path d="M502.982,1488.72C502.687,1483.87 503.233,1478.51 504.313,1473.51C505.985,1465.78 509.004,1458.96 511.818,1455.94C514.253,1453.33 516.916,1452.79 519.135,1453.54C522.309,1454.61 524.185,1457.45 524.531,1461.49C525.028,1467.28 522.063,1476.06 520.966,1478.57C518.423,1484.37 515.195,1488.71 511.479,1492.13C512.009,1494.64 512.914,1496.79 514.611,1498.07C516.411,1499.43 518.99,1499.54 522.499,1498.52C524.359,1497.98 528.185,1495.58 531.898,1492.62C531.273,1488.88 531.933,1484.89 533.399,1481.92C535.658,1477.35 539.66,1475.33 543.378,1476.58C545.901,1477.43 547.273,1478.89 547.982,1480.47C548.908,1482.54 548.727,1485.3 546.992,1488.28C545.829,1490.28 543.889,1492.53 541.596,1494.73C542.74,1495.65 544.423,1496.1 546.69,1496.06C549.5,1496.01 553.761,1493.85 558.442,1491.37C566.769,1486.97 576.053,1481.29 581.49,1479.82C586.206,1478.54 589.224,1480.09 590.474,1482.76C591.45,1484.84 592.362,1486.35 593.304,1487.35C593.758,1487.84 594.15,1488.18 594.605,1488.27C595.214,1488.38 595.803,1488.09 596.446,1487.79C597.276,1487.39 598.123,1486.86 599.007,1486.27C605.14,1482.2 612.544,1476.51 622.658,1479.95C626.835,1481.37 627.974,1485.23 627.238,1490C627.029,1491.36 626.696,1492.79 626.49,1494.11C626.459,1494.32 626.433,1494.57 626.416,1494.81C626.906,1494.78 627.446,1494.69 628.021,1494.58C629.572,1494.3 631.283,1493.81 633.012,1493.27C637.115,1492.01 641.31,1490.6 644.18,1490.42C674.619,1488.44 705.262,1488.95 735.666,1486.35C737.866,1486.16 739.804,1487.8 739.992,1490C740.181,1492.2 738.547,1494.13 736.348,1494.32C705.889,1496.93 675.192,1496.42 644.698,1498.4C641.733,1498.59 637.166,1500.46 633.014,1501.61C629.258,1502.66 625.743,1503.1 623.339,1502.48C619.087,1501.37 617.815,1497.62 618.619,1492.67C618.806,1491.52 619.079,1490.3 619.277,1489.12C619.366,1488.59 619.409,1487.82 619.427,1487.32C615.753,1486.29 612.674,1487.27 609.968,1488.71C607.579,1489.99 605.434,1491.61 603.43,1492.94C599.793,1495.35 596.358,1496.73 593.131,1496.13C590.208,1495.58 586.948,1493.4 583.899,1487.51C583.371,1487.63 582.679,1487.81 582.112,1488.02C580.221,1488.73 577.995,1489.83 575.591,1491.1C567.65,1495.3 557.95,1501.24 551.421,1503.23C549.708,1503.76 548.16,1504.03 546.842,1504.06C541.476,1504.16 537.836,1502.42 535.442,1499.93C531.142,1503.15 526.858,1505.59 524.725,1506.2C518.051,1508.14 513.221,1507.04 509.798,1504.46C507.512,1502.74 505.798,1500.25 504.656,1497.21C503.521,1497.9 502.358,1498.55 501.172,1499.16C493.822,1502.94 485.507,1505.32 477.392,1509.4C475.42,1510.39 473.014,1509.59 472.023,1507.62C471.032,1505.64 471.829,1503.24 473.802,1502.25C480.352,1498.96 487.029,1496.76 493.236,1494.06C496.681,1492.56 499.976,1490.9 502.982,1488.72ZM516.594,1462.86C515.483,1464.65 514.437,1467.12 513.537,1469.93C513.005,1471.59 512.529,1473.37 512.133,1475.2C511.81,1476.7 511.537,1478.23 511.332,1479.77C512.164,1478.43 512.935,1476.96 513.64,1475.35C514.386,1473.65 516.288,1468.3 516.564,1463.92C516.587,1463.56 516.598,1463.2 516.594,1462.86Z"/>
            </g>
            <g id="CHECK" transform="matrix(1,0,0,1,4.06298,-5.83942)">
                <g transform="matrix(1,0,0,1.01227,2.36536,-9.96947)">
                    <rect x="1309.49" y="1028.84" width="1103.63" height="591.018" style="fill:rgb(228,228,230);"/>
                </g>
                <g>
                    <g transform="matrix(0.872977,0,0,0.872977,306.245,196.093)">
                        <path d="M2019.62,1565.41C2024.29,1548.33 2031.76,1531.21 2042.12,1516.88C2044.19,1514.02 2047.68,1508.47 2051.69,1504.81C2055.43,1501.4 2059.68,1499.64 2063.79,1500.55C2068.53,1501.59 2070.97,1505.06 2071.48,1509.98C2072.23,1517.28 2067.62,1528.7 2065.83,1531.92C2057.07,1547.76 2042.79,1560.65 2027.62,1571.06C2026.96,1573.86 2026.52,1576.78 2026.72,1579.48C2026.98,1582.93 2028.5,1585.93 2032.73,1587.11C2041.38,1589.51 2050.98,1587.02 2060.16,1582.41C2063.68,1580.64 2067.13,1578.56 2070.44,1576.27C2070.52,1574.84 2070.66,1573.52 2070.8,1572.46C2072.7,1557.3 2081.29,1543.07 2091.61,1532.1C2093.23,1530.38 2098.58,1524.27 2102.96,1522.45C2106.71,1520.89 2110.08,1521.43 2112.54,1524.57C2114.82,1527.48 2115.36,1531.6 2114.28,1536.21C2112.47,1543.96 2106.01,1553.5 2103.32,1557.21C2097.94,1564.62 2089.51,1573.41 2079.71,1580.85C2079.79,1581.33 2079.91,1581.79 2080.08,1582.2C2080.18,1582.44 2080.24,1582.7 2080.48,1582.79C2084.64,1584.36 2089.13,1582.62 2093.53,1580.02C2101.78,1575.15 2109.51,1566.79 2114.35,1562.32C2116.45,1560.38 2119.91,1556.76 2123.55,1554.57C2127.07,1552.45 2130.79,1551.66 2134.1,1552.83C2138.16,1554.27 2139.67,1557.07 2139.68,1560.72C2139.68,1562.84 2138.92,1565.49 2137.8,1568.29C2136.8,1570.78 2135.51,1573.45 2134.77,1575.94C2134.53,1576.74 2134.34,1577.5 2134.31,1578.22C2134.28,1578.72 2134.47,1579.12 2135.05,1579.35C2137.63,1580.37 2139.87,1579.69 2141.94,1578.32C2144.93,1576.33 2147.62,1573.12 2150.3,1569.88C2154.2,1565.17 2158.08,1560.39 2162.24,1557.69C2165.9,1555.32 2169.78,1554.35 2174.02,1555.4C2180.09,1556.91 2181.22,1561.95 2179.62,1568.62C2179.12,1570.75 2178.37,1573.08 2178.02,1575.26C2177.82,1576.56 2177.36,1577.9 2178.66,1578.48C2180.67,1579.37 2182.57,1578.95 2184.43,1578.12C2186.2,1577.33 2187.94,1576.16 2189.67,1574.94C2192.86,1572.7 2196.03,1570.26 2199.26,1568.69C2201.97,1567.37 2204.74,1566.61 2207.57,1566.7C2209.98,1566.78 2211.56,1567.54 2212.66,1568.45C2214.01,1569.57 2214.8,1571.05 2215.11,1572.84C2215.28,1573.78 2215.29,1574.85 2215.21,1575.97C2215.17,1576.56 2215.13,1577.48 2215.1,1578.14C2224.46,1579.36 2234.92,1576.43 2244.27,1575.81C2260.2,1574.74 2276.29,1575.68 2292.15,1574.25C2294.67,1574.02 2296.9,1575.88 2297.12,1578.4C2297.35,1580.92 2295.49,1583.15 2292.97,1583.38C2277.04,1584.82 2260.88,1583.88 2244.88,1584.95C2234.71,1585.63 2223.28,1588.64 2213.16,1587.12C2210.84,1586.78 2209.31,1585.88 2208.24,1584.83C2207.03,1583.64 2206.33,1582.17 2206.04,1580.49C2205.84,1579.34 2205.86,1578.05 2205.95,1576.76C2205.97,1576.53 2205.99,1576.24 2206.01,1575.95C2204.21,1576.25 2202.48,1577.26 2200.73,1578.38C2197.72,1580.31 2194.75,1582.72 2191.72,1584.58C2186.37,1587.87 2180.84,1589.47 2174.94,1586.85C2170.68,1584.96 2169.02,1581.76 2168.75,1577.91C2168.56,1575.29 2169.21,1572.23 2169.99,1569.27C2170.35,1567.9 2170.73,1566.56 2170.97,1565.32C2171.03,1564.99 2171.08,1564.54 2171.1,1564.17C2169.16,1563.98 2167.46,1565.06 2165.77,1566.46C2162.87,1568.86 2160.16,1572.35 2157.36,1575.72C2154.07,1579.7 2150.67,1583.52 2147,1585.96C2142.41,1589 2137.4,1590.13 2131.7,1587.88C2126.56,1585.86 2124.95,1582.23 2125.15,1577.84C2125.28,1574.94 2126.51,1571.5 2127.92,1568.14C2128.6,1566.53 2129.31,1564.93 2129.84,1563.44C2130.05,1562.85 2130.24,1562.05 2130.36,1561.45C2130.06,1561.52 2129.75,1561.67 2129.44,1561.81C2128.6,1562.17 2127.77,1562.71 2126.97,1563.3C2124.4,1565.18 2122.08,1567.65 2120.56,1569.06C2115.38,1573.84 2107.02,1582.69 2098.19,1587.91C2091.19,1592.05 2083.86,1593.87 2077.24,1591.36C2074.75,1590.42 2072.99,1588.62 2071.88,1586.29C2069.39,1587.86 2066.85,1589.31 2064.28,1590.6C2052.92,1596.3 2040.97,1598.91 2030.28,1595.94C2020.47,1593.21 2017.42,1585.76 2017.57,1577.55C2016.55,1578.17 2015.54,1578.77 2014.53,1579.37C2007.95,1583.25 2000.79,1588.11 1993.42,1590.41C1993.48,1590.39 1993.67,1590.32 1993.67,1590.32C1993.67,1590.32 1992.5,1590.72 1991.96,1590.77C1991.14,1590.86 1990.44,1590.74 1989.91,1590.56C1988.87,1590.21 1988.11,1589.59 1987.57,1588.83C1986.11,1586.77 1986.6,1583.91 1988.66,1582.45C1989.31,1581.99 1990.04,1581.72 1990.77,1581.63C1997.46,1579.53 2003.89,1575 2009.87,1571.48C2013.12,1569.57 2016.38,1567.55 2019.62,1565.41ZM1994.84,1583.26L1994.9,1583.34L1994.89,1583.32L1994.84,1583.26ZM1994.67,1583.07L1994.74,1583.14L1994.72,1583.12L1994.67,1583.07ZM1994.5,1582.9L1994.57,1582.96L1994.54,1582.93L1994.5,1582.9ZM1994.33,1582.74L1994.36,1582.77L1994.34,1582.75L1994.33,1582.74ZM2105.67,1531.49C2104.8,1532.06 2103.59,1532.89 2102.84,1533.59C2100.8,1535.49 2099.06,1537.56 2098.29,1538.38C2090.54,1546.62 2083.78,1556.88 2080.95,1568.01C2087.05,1562.6 2092.25,1556.86 2095.9,1551.83C2097.89,1549.08 2102.35,1542.7 2104.56,1536.73C2105.16,1535.08 2105.61,1533.48 2105.66,1532.04C2105.67,1531.85 2105.68,1531.67 2105.67,1531.49ZM2032,1556.5C2042.33,1548.31 2051.6,1538.73 2057.81,1527.49C2059.01,1525.34 2061.93,1518.52 2062.36,1513.03C2062.43,1512.16 2062.43,1511.34 2062.32,1510.6C2062.25,1510.12 2062.29,1509.6 2061.82,1509.5C2061.22,1509.36 2060.65,1509.63 2060.08,1509.94C2059.32,1510.35 2058.59,1510.93 2057.87,1511.58C2054.35,1514.8 2051.37,1519.74 2049.55,1522.25C2042.11,1532.53 2036.29,1544.35 2032,1556.5Z"/>
                    </g>
                    <g transform="matrix(1,0,0,1.09988,0.490571,-129.505)">
                        <path d="M1927.46,1427.01L1927.46,1418.35C1927.46,1415.04 1930.15,1412.35 1933.46,1412.35C1936.77,1412.35 1939.46,1415.04 1939.46,1418.35L1939.46,1432.33C1939.46,1435.64 1936.77,1438.33 1933.46,1438.33L1933.45,1438.33C1932.62,1438.77 1931.67,1439.01 1930.66,1439.01L1409.28,1439.01C1408.23,1439.01 1407.24,1438.74 1406.38,1438.27C1403.08,1438.25 1400.41,1435.57 1400.41,1432.27L1400.41,1418.35C1400.41,1415.04 1403.1,1412.35 1406.41,1412.35C1409.72,1412.35 1412.41,1415.04 1412.41,1418.35L1412.41,1427.01L1927.46,1427.01ZM2134.52,1297.04L2134.52,1285.77C2134.52,1282.46 2137.21,1279.77 2140.52,1279.77C2143.83,1279.77 2146.52,1282.46 2146.52,1285.77L2146.52,1299.75C2146.52,1301.05 2146.11,1302.25 2145.41,1303.23C2145.3,1306.45 2142.66,1309.04 2139.41,1309.04L1406.84,1309.04C1406.77,1309.04 1406.7,1309.04 1406.63,1309.04C1406.55,1309.04 1406.48,1309.04 1406.41,1309.04C1403.1,1309.04 1400.41,1306.35 1400.41,1303.04L1400.41,1289.12C1400.41,1285.81 1403.1,1283.12 1406.41,1283.12C1409.72,1283.12 1412.41,1285.81 1412.41,1289.12L1412.41,1297.04L2134.52,1297.04ZM1402.94,1182.98L1403.37,1169.01C1403.48,1165.7 1406.25,1163.1 1409.56,1163.2C1412.87,1163.31 1415.47,1166.08 1415.37,1169.38L1415.13,1177.18L2135.94,1177.18L2135.94,1169.2C2135.94,1165.89 2138.63,1163.2 2141.94,1163.2C2145.25,1163.2 2147.94,1165.89 2147.94,1169.2L2147.94,1183.18C2147.94,1186.49 2145.25,1189.18 2141.94,1189.18C2141.87,1189.18 2141.79,1189.18 2141.72,1189.18C2141.65,1189.18 2141.58,1189.18 2141.51,1189.18L1408.96,1189.18C1408.93,1189.18 1408.89,1189.18 1408.86,1189.18L1408.83,1189.18C1408.23,1189.17 1407.66,1189.07 1407.12,1188.9C1406.18,1188.6 1405.34,1188.08 1404.67,1187.4L1404.64,1187.37L1404.61,1187.34L1404.59,1187.32C1403.93,1186.62 1403.43,1185.77 1403.16,1184.82C1403.01,1184.28 1402.93,1183.7 1402.94,1183.11L1402.94,1183.07C1402.94,1183.04 1402.94,1183.01 1402.94,1182.98Z" style="fill:white;"/>
                    </g>
                    <path d="M2306.4,1459.63L2306.4,1423.9C2306.4,1420.59 2309.09,1417.9 2312.4,1417.9C2315.71,1417.9 2318.4,1420.59 2318.4,1423.9L2318.4,1465.63C2318.4,1468.95 2315.72,1471.63 2312.4,1471.63L2015,1471.63C2011.68,1471.63 2009,1468.95 2009,1465.63L2009,1423.9C2009,1420.59 2011.69,1417.9 2015,1417.9C2018.31,1417.9 2021,1420.59 2021,1423.9L2021,1459.63L2306.4,1459.63Z" style="fill:white;"/>
                    <path d="M2021,1380.91L2021,1423.9C2021,1427.21 2018.31,1429.9 2015,1429.9C2011.69,1429.9 2009,1427.21 2009,1423.9L2009,1374.91C2009,1371.6 2011.68,1368.91 2015,1368.91L2312.4,1368.91C2315.72,1368.91 2318.4,1371.6 2318.4,1374.91L2318.4,1423.9C2318.4,1427.21 2315.71,1429.9 2312.4,1429.9C2309.09,1429.9 2306.4,1427.21 2306.4,1423.9L2306.4,1380.91L2021,1380.91Z" style="fill:white;"/>
                    <path d="M2042.56,1446.86L2073.11,1446.86C2076.42,1446.86 2079.11,1444.17 2079.11,1440.86C2079.11,1437.55 2076.42,1434.86 2073.11,1434.86L2042.56,1434.86C2039.25,1434.86 2036.56,1437.55 2036.56,1440.86C2036.56,1444.17 2039.25,1446.86 2042.56,1446.86ZM2148.43,1446.86L2178.97,1446.86C2182.28,1446.86 2184.97,1444.17 2184.97,1440.86C2184.97,1437.55 2182.28,1434.86 2178.97,1434.86L2148.43,1434.86C2145.12,1434.86 2142.43,1437.55 2142.43,1440.86C2142.43,1444.17 2145.12,1446.86 2148.43,1446.86ZM2095.49,1446.86L2126.04,1446.86C2129.35,1446.86 2132.04,1444.17 2132.04,1440.86C2132.04,1437.55 2129.35,1434.86 2126.04,1434.86L2095.49,1434.86C2092.18,1434.86 2089.49,1437.55 2089.49,1440.86C2089.49,1444.17 2092.18,1446.86 2095.49,1446.86ZM2201.36,1446.86L2231.91,1446.86C2235.22,1446.86 2237.91,1444.17 2237.91,1440.86C2237.91,1437.55 2235.22,1434.86 2231.91,1434.86L2201.36,1434.86C2198.05,1434.86 2195.36,1437.55 2195.36,1440.86C2195.36,1444.17 2198.05,1446.86 2201.36,1446.86ZM2254.3,1446.86L2284.84,1446.86C2288.15,1446.86 2290.84,1444.17 2290.84,1440.86C2290.84,1437.55 2288.15,1434.86 2284.84,1434.86L2254.3,1434.86C2250.99,1434.86 2248.3,1437.55 2248.3,1440.86C2248.3,1444.17 2250.99,1446.86 2254.3,1446.86Z" style="fill:white;"/>
                </g>
                <g transform="matrix(1,0,0,1,-29.0891,-7.72568)">
                    <circle cx="2305.98" cy="1165.12" r="84.089" style="fill:white;"/>
                </g>
                <path d="M2274.1,1112.36L2274.67,1073.34C2275.41,1073.32 2276.15,1073.31 2276.89,1073.31C2278.84,1073.31 2280.76,1073.38 2282.67,1073.51L2282.1,1112.46C2289.26,1112.37 2296.72,1111.78 2304.39,1110.53C2299.35,1095.97 2293.18,1083.43 2287.91,1074.03C2291.36,1074.48 2294.76,1075.14 2298.07,1076C2302.87,1085.13 2308.02,1096.36 2312.33,1109.01C2320.95,1107.1 2329.8,1104.33 2338.76,1100.47C2340.64,1102.51 2342.42,1104.65 2344.09,1106.87C2334.16,1111.32 2324.34,1114.5 2314.77,1116.65C2315.36,1118.63 2315.92,1120.63 2316.45,1122.67C2319.36,1133.68 2321.42,1145.47 2322.02,1157.68L2360.97,1158.84C2360.93,1161.54 2360.75,1164.2 2360.46,1166.83L2322.19,1165.69C2322.11,1179.28 2320.1,1193.28 2315.32,1207.24C2322.65,1209.31 2330.1,1212.04 2337.62,1215.55C2335.62,1217.63 2333.52,1219.61 2331.32,1221.48C2324.97,1218.68 2318.68,1216.47 2312.47,1214.74C2309.16,1222.7 2304.89,1230.62 2299.52,1238.4C2295.71,1239.47 2291.79,1240.27 2287.78,1240.79C2295.01,1231.63 2300.5,1222.25 2304.55,1212.79C2296.35,1211.03 2288.35,1210.09 2280.65,1209.78L2280.18,1241.42C2279.09,1241.46 2277.99,1241.49 2276.89,1241.49C2275.31,1241.49 2273.74,1241.44 2272.18,1241.36L2272.65,1209.68C2263.05,1209.82 2254.01,1210.88 2245.74,1212.46C2250.14,1221.52 2255.86,1230.83 2263.14,1240.36C2259.03,1239.69 2255.03,1238.71 2251.15,1237.46C2245.7,1229.55 2241.26,1221.79 2237.7,1214.21C2231.22,1215.78 2225.34,1217.62 2220.2,1219.48C2218.05,1217.51 2216,1215.44 2214.07,1213.26C2219.9,1211.03 2226.77,1208.75 2234.49,1206.82C2228.74,1192.51 2226.08,1178.89 2225.58,1166.15C2225.54,1165.03 2225.51,1163.92 2225.5,1162.82L2192.92,1161.85C2192.85,1160.38 2192.81,1158.89 2192.81,1157.4C2192.81,1156.21 2192.83,1155.03 2192.88,1153.85L2225.71,1154.82C2226.62,1139.88 2230.42,1126.32 2235.48,1114.46C2225.04,1111.68 2216.51,1108.42 2210.51,1105.81C2212.22,1103.6 2214.05,1101.49 2215.97,1099.46C2221.75,1101.87 2229.54,1104.71 2238.87,1107.12C2245.64,1093.53 2253.8,1082.6 2260.42,1074.92C2264.4,1074.13 2268.48,1073.62 2272.64,1073.41C2266.3,1079.83 2255.48,1092.14 2246.82,1108.98C2255.06,1110.69 2264.24,1111.98 2274.1,1112.36ZM2314.16,1165.45L2281.32,1164.48L2280.77,1201.8C2289.36,1202.13 2298.3,1203.2 2307.47,1205.25C2312.13,1191.88 2314.09,1178.46 2314.16,1165.45ZM2233.51,1163.06C2233.52,1163.98 2233.54,1164.91 2233.58,1165.84C2234.05,1178.12 2236.71,1191.23 2242.4,1205.02C2251.65,1203.14 2261.87,1201.86 2272.77,1201.71L2273.33,1164.24L2233.51,1163.06ZM2306.88,1118.21C2298.3,1119.68 2289.96,1120.35 2281.98,1120.44L2281.44,1156.48L2313.97,1157.44C2313.38,1146.02 2311.43,1135 2308.72,1124.7C2308.14,1122.51 2307.53,1120.34 2306.88,1118.21ZM2243.3,1116.36C2238.35,1127.67 2234.61,1140.69 2233.71,1155.06L2273.45,1156.24L2273.98,1120.32C2262.81,1119.9 2252.48,1118.37 2243.3,1116.36Z" style="fill:rgb(228,228,230);"/>
            </g>
            <g id="PIGGY-BANK" serif:id="PIGGY BANK">
                <g transform="matrix(1,0,0,1,-0.00389917,-3.74704)">
                    <g transform="matrix(1,0,0,1,545.018,0)">
                        <path d="M1012.17,1453.99C1014.67,1503.81 1022.65,1546.2 1036.09,1585.32C1044.88,1611.17 1069.15,1628.55 1096.45,1628.55C1096.45,1628.58 1096.45,1628.58 1096.45,1628.58C1119.45,1628.58 1140.19,1614.74 1149.01,1593.5C1164.28,1556.81 1177.15,1511.75 1186.36,1453.99L1012.17,1453.99Z" style="fill:rgb(242,127,113);"/>
                    </g>
                    <path d="M1558.81,1477.43C1558.64,1475.5 1558.48,1473.56 1558.32,1471.6L1603.62,1472.44C1603.62,1472.44 1614.01,1507.09 1623.53,1537.87C1636.23,1578.9 1648.35,1606.16 1674.61,1617.94C1672.11,1619.73 1669.46,1621.32 1666.7,1622.68C1658.27,1625.76 1647.84,1628.58 1641.47,1628.58C1641.47,1628.58 1641.47,1628.58 1641.47,1628.55C1641.3,1628.55 1641.12,1628.55 1640.95,1628.55C1639.95,1628.54 1638.96,1628.51 1637.97,1628.46L1637.65,1628.44C1637.23,1628.41 1636.8,1628.39 1636.38,1628.35L1636.07,1628.33L1635.76,1628.3L1635.44,1628.27C1635.34,1628.26 1635.24,1628.25 1635.13,1628.24L1634.96,1628.22C1634.59,1628.19 1634.23,1628.14 1633.86,1628.1C1633.66,1628.08 1633.46,1628.05 1633.26,1628.03L1632.94,1627.99C1632.43,1627.91 1631.91,1627.84 1631.4,1627.76L1631.09,1627.71C1630.99,1627.69 1630.88,1627.67 1630.78,1627.65L1630.47,1627.6C1630.37,1627.58 1630.27,1627.57 1630.16,1627.55L1629.87,1627.49C1629.53,1627.43 1629.19,1627.37 1628.85,1627.3C1627.18,1626.96 1625.53,1626.56 1623.91,1626.09C1623.37,1625.94 1622.84,1625.78 1622.3,1625.61C1621.6,1625.39 1620.9,1625.15 1620.21,1624.91C1619.95,1624.82 1619.69,1624.72 1619.43,1624.63L1618.85,1624.41C1614.83,1622.88 1610.99,1620.96 1607.38,1618.68L1606.87,1618.35C1606.67,1618.22 1606.47,1618.09 1606.28,1617.96L1605.85,1617.67L1605.34,1617.33L1605.18,1617.22C1603.48,1616.04 1601.84,1614.79 1600.27,1613.45C1599.72,1612.99 1599.18,1612.52 1598.65,1612.04L1598.2,1611.62L1597.75,1611.21C1597.6,1611.07 1597.46,1610.93 1597.31,1610.79L1596.94,1610.43C1594.9,1608.44 1592.99,1606.31 1591.23,1604.06C1590.32,1602.89 1589.44,1601.69 1588.61,1600.46C1588.35,1600.06 1588.09,1599.67 1587.83,1599.27C1587.51,1598.77 1587.2,1598.26 1586.89,1597.75L1586.79,1597.59L1586.69,1597.42C1585.98,1596.23 1585.31,1595.01 1584.67,1593.77L1584.53,1593.49L1584.43,1593.28C1583.58,1591.57 1582.8,1589.82 1582.09,1588.02L1581.98,1587.72C1581.82,1587.3 1581.66,1586.88 1581.51,1586.46C1581.37,1586.08 1581.24,1585.7 1581.11,1585.32L1580.81,1584.45L1580.72,1584.17L1580.52,1583.59L1580.4,1583.25L1580.22,1582.71L1580.1,1582.36L1579.93,1581.84L1579.81,1581.48L1579.63,1580.95L1579.52,1580.6L1579.34,1580.04L1579.23,1579.73L1579.01,1579.03L1578.95,1578.86L1578.66,1577.98L1578.59,1577.74L1578.38,1577.11L1578.28,1576.78L1578.1,1576.23L1577.99,1575.87L1577.82,1575.34L1577.71,1574.98L1577.54,1574.45L1577.43,1574.09L1577.26,1573.54L1577.16,1573.21L1576.96,1572.58L1576.88,1572.33L1576.62,1571.44L1576.56,1571.27L1576.35,1570.56L1576.25,1570.24L1576.08,1569.67L1575.98,1569.32L1575.81,1568.78L1575.71,1568.41L1575.55,1567.88L1575.44,1567.52L1575.28,1566.97L1575.18,1566.62L1575.01,1566.03L1574.92,1565.73L1574.67,1564.86L1574.66,1564.84L1574.41,1563.94L1574.33,1563.65L1574.15,1563.05L1574.06,1562.7L1573.9,1562.15L1573.8,1561.78L1573.65,1561.24L1573.55,1560.87L1573.4,1560.33L1573.3,1559.97L1573.14,1559.39L1573.06,1559.06L1572.86,1558.35L1572.81,1558.16L1572.57,1557.26L1572.5,1557L1572.33,1556.35L1572.24,1556.01L1572.09,1555.44L1571.99,1555.07L1571.85,1554.53L1571.76,1554.15L1571.62,1553.61L1571.52,1553.24L1571.38,1552.67L1571.29,1552.32L1571.12,1551.68L1571.06,1551.41L1570.83,1550.49L1570.78,1550.31L1570.6,1549.58L1570.52,1549.25L1570.38,1548.66L1570.29,1548.29L1570.15,1547.74L1570.06,1547.35L1569.93,1546.81L1569.84,1546.42L1569.7,1545.87L1569.62,1545.5L1569.48,1544.89L1569.4,1544.57L1569.2,1543.72L1569.18,1543.64L1568.97,1542.72L1568.9,1542.4L1568.76,1541.8L1568.68,1541.42L1568.55,1540.86L1568.46,1540.47L1568.34,1539.92L1568.25,1539.53L1568.13,1538.98L1568.05,1538.59L1567.92,1538.01L1567.84,1537.65L1567.69,1536.96L1567.64,1536.71L1567.44,1535.79L1567.38,1535.49L1567.24,1534.85L1567.16,1534.47L1567.05,1533.9L1566.96,1533.5L1566.85,1532.95L1566.77,1532.54L1566.66,1532L1566.57,1531.59L1566.46,1531.04L1566.38,1530.64L1566.26,1530.03L1566.19,1529.69L1566.01,1528.76L1565.96,1528.49L1565.83,1527.81L1565.75,1527.42L1565.64,1526.85L1565.56,1526.43L1565.46,1525.9L1565.38,1525.46L1565.28,1524.93L1565.2,1524.5L1565.1,1523.96L1565.02,1523.54L1564.92,1522.98L1564.85,1522.57L1564.72,1521.87L1564.67,1521.62L1564.64,1521.43L1564.51,1520.68L1564.43,1520.26L1564.34,1519.71L1564.26,1519.26L1564.17,1518.74L1564.09,1518.28L1564,1517.77L1563.92,1517.31L1563.84,1516.8L1563.76,1516.33L1563.67,1515.82L1563.6,1515.36L1563.51,1514.8L1563.44,1514.38L1563.29,1513.45L1563.21,1512.99L1563.13,1512.47L1563.05,1511.98L1562.98,1511.49L1562.9,1510.99L1562.82,1510.51L1562.75,1510.01L1562.67,1509.53L1562.59,1509.02L1562.52,1508.55L1562.44,1508.03L1562.38,1507.57L1562.3,1507.04L1562.24,1506.62L1562.16,1506.1L1562.08,1505.56L1562.02,1505.13L1561.94,1504.58L1561.88,1504.14L1561.8,1503.59L1561.74,1503.15L1561.66,1502.6L1561.61,1502.16L1561.53,1501.6L1561.47,1501.18L1561.39,1500.6L1561.34,1500.21L1561.26,1499.6L1561.23,1499.34L1561.13,1498.64L1561.03,1497.82L1561.01,1497.69L1560.93,1497.03L1560.88,1496.69L1560.81,1496.06L1560.76,1495.69L1560.68,1495.06L1560.64,1494.69L1560.56,1494.06L1560.52,1493.7L1560.44,1493.05L1560.4,1492.73L1560.32,1492.03L1560.3,1491.86L1560.2,1491.06C1560.17,1490.74 1560.13,1490.42 1560.1,1490.1L1560,1489.28L1559.99,1489.12L1559.9,1488.38L1559.88,1488.11L1559.8,1487.39L1559.77,1487.11L1559.69,1486.39L1559.66,1486.11L1559.58,1485.37L1559.56,1485.14L1559.48,1484.35L1559.47,1484.27C1559.34,1483.02 1559.22,1481.78 1559.1,1480.52L1559.09,1480.43L1559.01,1479.58L1558.99,1479.41L1558.92,1478.58L1558.9,1478.41L1558.83,1477.56L1558.81,1477.43Z" style="fill:rgb(255,194,186);"/>
                </g>
                <g transform="matrix(1,0,0,1,2.51979,-2.54379)">
                    <path d="M1012.17,1453.99C1014.67,1503.81 1022.65,1546.2 1036.09,1585.32C1044.88,1611.17 1069.15,1628.55 1096.45,1628.55C1096.45,1628.58 1096.45,1628.58 1096.45,1628.58C1119.45,1628.58 1140.19,1614.74 1149.01,1593.5C1164.28,1556.81 1177.15,1511.75 1186.36,1453.99L1012.17,1453.99Z" style="fill:rgb(255,195,187);"/>
                    <path d="M1012.53,1460.53C1012.4,1458.36 1012.28,1456.19 1012.17,1453.99L1186.36,1453.99C1185.52,1459.23 1184.66,1464.35 1183.77,1469.38L1155.3,1468.91C1150.03,1485.8 1118.13,1587.81 1102.46,1604.21C1089.63,1617.63 1082.96,1622.09 1076.34,1625.3C1057.96,1619.19 1042.95,1604.88 1036.3,1585.93L1036.29,1585.91L1036.21,1585.66L1036.09,1585.32C1034.1,1579.53 1032.23,1573.66 1030.48,1567.71C1030.24,1566.91 1030.01,1566.11 1029.78,1565.3C1029.14,1563.1 1028.53,1560.88 1027.92,1558.64C1027.8,1558.17 1027.67,1557.7 1027.54,1557.22C1026.84,1554.57 1026.15,1551.89 1025.49,1549.19C1024.93,1546.91 1024.38,1544.61 1023.86,1542.3C1023.12,1539.09 1022.42,1535.85 1021.75,1532.57C1021.28,1530.28 1020.83,1527.96 1020.39,1525.63C1020.21,1524.64 1020.02,1523.65 1019.84,1522.65L1019.66,1521.63C1019.4,1520.18 1019.14,1518.72 1018.9,1517.25C1018.45,1514.6 1018.02,1511.92 1017.61,1509.22L1017.45,1508.17C1017.17,1506.35 1016.91,1504.51 1016.65,1502.66L1016.54,1501.84L1016.51,1501.6C1015.61,1494.95 1014.82,1488.18 1014.15,1481.26L1014.05,1480.15L1014.03,1479.97C1013.84,1477.92 1013.65,1475.86 1013.48,1473.78C1013.12,1469.42 1012.8,1465.01 1012.53,1460.53Z" style="fill:rgb(242,127,113);"/>
                </g>
                <g transform="matrix(1,0,0,1,-1.65283,-0.418)">
                    <path d="M1848.61,985.29C1856.03,983.208 1862.13,981.321 1863.65,980.373C1881.49,969.269 1896.55,950.937 1904.54,930.133C1912.26,910.055 1914.19,887.774 1904.82,868.064C1893.58,884.233 1875.75,895.218 1859.5,896.501C1841.4,897.93 1824,889.078 1815.26,863.468C1804.96,833.282 1825.02,809.247 1854.99,803.226C1866.46,800.921 1879.59,801.61 1892.62,806.267C1891.82,798.49 1889.89,790.88 1887.06,783.556C1879.6,764.251 1866.34,746.832 1850.59,733.363C1846.56,730.118 1845.93,724.214 1849.17,720.186C1852.41,716.158 1858.32,715.522 1862.35,718.767C1881.58,733.342 1898.02,752.81 1908.02,774.736C1914.67,789.325 1918.33,805.01 1918.13,821.216C1926.45,828.334 1934.15,837.637 1940.67,849.424C1957,878.952 1957.26,913.425 1947.18,945.095C1937.27,976.265 1916.48,1004.2 1891.31,1022C1888.16,1024.24 1875.95,1029.8 1861.79,1035.22C1863.51,1043.63 1865.1,1052.39 1866.57,1061.55C1893.97,1232.21 1892.9,1391.64 1842.51,1552.42C1828.22,1597.74 1786.19,1628.57 1738.68,1628.57C1738.67,1628.58 1738.67,1628.58 1738.67,1628.58C1696.48,1628.58 1658.97,1601.68 1645.45,1561.7C1629.19,1513.65 1610.13,1457.3 1610.13,1457.3L1148.24,1457.3C1148.24,1457.3 1124.45,1524.59 1106.7,1574.82C1095.31,1607.04 1064.85,1628.58 1030.68,1628.58L1030.67,1628.58C988.139,1628.58 951.217,1599.26 941.583,1557.83C930.618,1510.67 918.207,1457.3 918.207,1457.3L779.255,1457.3C763.126,1457.3 748.001,1447.87 742.291,1432.79C724.51,1385.82 689.104,1264.97 745.703,1123.92C749.86,1113.57 760.617,1107.38 771.779,1107.38C808.798,1107.35 890.572,1107.35 890.572,1107.35C890.572,1107.35 902.936,919.023 1073.48,819.716L1027.09,731.176C1027.09,731.176 1104.66,700.617 1173.33,788.944C1336.99,750.434 1481.31,746.293 1665.1,800.822C1708.12,813.512 1747.03,837.319 1777.92,869.842C1799.42,892.431 1816.36,915.064 1829.8,940.736C1837.03,954.552 1843.24,969.248 1848.61,985.29ZM1886.62,845.335C1881.16,841.464 1875.34,839.214 1869.6,838.495C1856.7,836.882 1842.98,841.791 1846.33,853.881C1849.21,864.311 1856.12,867.795 1863.53,865.5C1872.66,862.67 1881.7,855.124 1886.62,845.335Z" style="fill:rgb(255,195,187);"/>
                </g>
                <path d="M1143.32,1466.11L1158.21,1420.29C1158.93,1418.06 1161.14,1416.65 1163.46,1416.94C1165.79,1417.23 1167.59,1419.13 1167.75,1421.47L1170.19,1456.89L1146.58,1456.89L1143.32,1466.11ZM1580.25,1456.89L1587.97,1418.57C1588.32,1416.87 1589.76,1415.61 1591.5,1415.5C1593.23,1415.38 1594.83,1416.45 1595.39,1418.1C1601.06,1434.84 1609.97,1461.15 1609.97,1461.15L1609.93,1461.16L1608.48,1456.89L1580.25,1456.89ZM1760.35,1138.17C1760.35,1008.88 1660.9,901.343 1532,891.261C1437.92,883.814 1344.39,883.879 1251.41,891.238C1122.5,901.299 1023.03,1008.84 1023.03,1138.14C1023.02,1138.14 1023.02,1138.14 1023.02,1138.14C1023.02,1272.14 1129.56,1381.87 1263.51,1385.81C1349.28,1388.36 1434.73,1388.36 1519.86,1385.84C1653.81,1381.9 1760.35,1272.17 1760.35,1138.17C1760.35,1138.17 1760.35,1138.17 1760.35,1138.17ZM831.14,1107.35C839.098,1125.07 846.407,1149.13 851.415,1181.79C852.252,1187.24 848.502,1192.35 843.047,1193.18C837.591,1194.02 832.483,1190.27 831.646,1184.82C826.029,1148.19 817.64,1123.69 809.013,1107.36L825.634,1107.35L831.14,1107.35ZM870.13,1107.35C876.42,1120.96 882.085,1138.31 886.233,1160.43C887.25,1165.86 883.672,1171.09 878.247,1172.1C872.823,1173.12 867.593,1169.54 866.576,1164.12C861.726,1138.26 854.819,1120.09 847.692,1107.35L870.13,1107.35ZM1860.13,1034.8C1861.86,1043.21 1845.52,980.567 1846.96,984.872C1854.37,982.79 1860.48,980.903 1862,979.955C1863.09,979.274 1864.18,978.566 1865.25,977.833C1869.35,991.101 1874.11,1008.1 1878.31,1027.32C1873.21,1029.59 1866.89,1032.21 1860.13,1034.8ZM1903.17,867.646C1901.33,871.708 1917.77,844.307 1916.48,820.798C1922.85,826.25 1928.86,832.985 1934.25,841.135C1931.61,853.92 1925.84,870.425 1913.38,886.535C1912.24,888.009 1910.77,889.078 1909.15,889.715C1908.45,882.175 1906.54,874.744 1903.17,867.646ZM1890.96,805.849C1892.68,826.966 1883.6,847.637 1884.97,844.917C1879.51,841.046 1873.69,838.796 1867.94,838.077C1867.45,838.015 1866.96,837.963 1866.47,837.921C1874.37,824.882 1873.1,810.747 1870.94,801.674C1877.48,802.096 1884.24,803.443 1890.96,805.849ZM1071.71,819.366L1079.1,834.129C1081.57,839.064 1079.57,845.077 1074.64,847.548C1069.7,850.019 1063.69,848.018 1061.22,843.083L1054.64,829.945C1060.15,826.321 1065.84,822.791 1071.71,819.366ZM1178.62,800.066C1178.62,800.066 1168.9,784.949 1171.68,788.526C1178.39,786.947 1185.07,785.426 1191.73,783.961L1194.96,788.53C1198.14,793.038 1197.06,799.283 1192.56,802.467C1188.05,805.65 1181.8,804.574 1178.62,800.066Z" style="fill:rgb(242,127,113);"/>
                <g>
                    <g transform="matrix(1,0,0,0.972203,0,43.7277)">
                        <ellipse cx="764.658" cy="1274.01" rx="53.459" ry="179.982" style="fill:rgb(242,127,113);"/>
                    </g>
                    <g transform="matrix(1,0,0,1,3.78145,3.99271)">
                        <path d="M732.291,1200.29L732.291,1356.38C732.291,1361.89 736.772,1366.38 742.291,1366.38C747.81,1366.38 752.291,1361.89 752.291,1356.38L752.291,1200.29C752.291,1194.77 747.81,1190.29 742.291,1190.29C736.772,1190.29 732.291,1194.77 732.291,1200.29Z" style="fill:rgb(215,68,30);"/>
                    </g>
                    <g transform="matrix(1,0,0,1,40.9526,3.99271)">
                        <path d="M732.291,1200.29L732.291,1356.38C732.291,1361.89 736.772,1366.38 742.291,1366.38C747.81,1366.38 752.291,1361.89 752.291,1356.38L752.291,1200.29C752.291,1194.77 747.81,1190.29 742.291,1190.29C736.772,1190.29 732.291,1194.77 732.291,1200.29Z" style="fill:rgb(215,68,30);"/>
                    </g>
                </g>
                <g transform="matrix(0.939538,0,0,0.762996,56.6308,262.47)">
                    <path d="M926.244,1047.93C926.014,1055.35 925.328,1071.25 928.49,1085.58C932.454,1103.54 941.748,1119.07 961.478,1120.44C969.606,1121 980.758,1119.71 989.851,1108.87C997.629,1099.6 1004.61,1082.09 1004.06,1048.16L982.773,1048.69C983.145,1071.47 980.268,1083.81 975.045,1090.04C971.139,1094.69 966.167,1094.51 962.676,1094.27C954.235,1093.68 950.728,1086.39 949.032,1078.7C946.534,1067.38 947.333,1054.79 947.516,1048.93L926.244,1047.93Z"/>
                </g>
                <g transform="matrix(0.9079,0,0.190785,0.838898,4.36391,111.17)">
                    <rect x="1155.59" y="839.553" width="436.939" height="52.539"/>
                </g>
            </g>
            <g id="BILL">
                <g>
                    <path d="M1247.57,891.568C1248.86,891.447 1250.13,891.338 1251.41,891.238C1344.39,883.879 1437.92,883.814 1532,891.261C1550.95,892.743 1569.26,896.331 1586.71,901.783L1586.71,1110.68L1247.57,1110.68L1247.57,891.568Z" style="fill:rgb(130,181,178);"/>
                    <path d="M1308.47,887.643C1377.54,884.405 1446.9,885.196 1516.58,890.107C1499.02,929.842 1459.25,957.6 1413.05,957.6C1365.9,957.6 1325.45,928.69 1308.47,887.643Z" style="fill:rgb(168,207,204);"/>
                    <path d="M1355.92,1110.68L1355.92,1013.26C1355.92,1001.64 1365.34,992.219 1376.95,992.219C1388.57,992.219 1397.99,1001.64 1397.99,1013.26L1397.99,1110.68L1355.92,1110.68ZM1426.18,1110.68L1426.18,1038.1C1426.18,1026.49 1435.61,1017.06 1447.22,1017.06C1458.83,1017.06 1468.26,1026.49 1468.26,1038.1L1468.26,1110.68L1426.18,1110.68Z" style="fill:rgb(168,207,204);"/>
                </g>
                <g>
                    <rect x="1247.57" y="542.655" width="339.137" height="292.955" style="fill:rgb(168,207,204);"/>
                    <path d="M1300.27,835.61C1304.8,777.311 1353.6,731.351 1413.05,731.351C1472.5,731.351 1521.3,777.311 1525.83,835.61L1300.27,835.61Z" style="fill:rgb(130,181,178);"/>
                    <path d="M1480.49,542.655L1480.49,625.663C1480.49,637.273 1471.07,646.7 1459.46,646.7C1447.85,646.7 1438.42,637.273 1438.42,625.663L1438.42,542.655L1480.49,542.655ZM1410.23,542.655L1410.23,600.821C1410.23,612.432 1400.8,621.858 1389.19,621.858C1377.58,621.858 1368.15,612.432 1368.15,600.821L1368.15,542.655L1410.23,542.655Z" style="fill:rgb(130,181,178);"/>
                </g>
            </g>
            <g id="COINS">
                <g transform="matrix(0.676994,0,0,0.670184,311.557,850.822)">
                    <g transform="matrix(1,0,0,1,-111.727,12.8484)">
                        <circle cx="1494.85" cy="372.517" r="157.821" style="fill:rgb(255,207,132);"/>
                    </g>
                    <g transform="matrix(0.811681,0,0,0.811681,169.781,83.0003)">
                        <path d="M1494.85,220.856C1578.55,220.856 1646.51,288.813 1646.51,372.517C1646.51,456.221 1578.55,524.178 1494.85,524.178C1491.45,524.178 1488.69,526.938 1488.69,530.338C1488.69,533.738 1491.45,536.498 1494.85,536.498C1585.35,536.498 1658.83,463.021 1658.83,372.517C1658.83,282.013 1585.35,208.536 1494.85,208.536C1491.45,208.536 1488.69,211.296 1488.69,214.696C1488.69,218.096 1491.45,220.856 1494.85,220.856Z" style="fill:rgb(253,153,9);"/>
                    </g>
                    <g transform="matrix(0.811681,0,0,0.811681,169.781,83.0003)">
                        <path d="M1494.85,524.178C1411.14,524.178 1343.18,456.221 1343.18,372.517C1343.18,288.813 1411.14,220.856 1494.85,220.856C1498.25,220.856 1501.01,218.096 1501.01,214.696C1501.01,211.296 1498.25,208.536 1494.85,208.536C1404.34,208.536 1330.87,282.013 1330.87,372.517C1330.87,463.021 1404.34,536.498 1494.85,536.498C1498.25,536.498 1501.01,533.738 1501.01,530.338C1501.01,526.938 1498.25,524.178 1494.85,524.178Z" style="fill:rgb(253,153,9);"/>
                    </g>
                    <path d="M1402.12,542.052L1398.89,516.051C1398.55,513.312 1400.5,510.813 1403.24,510.472C1405.98,510.132 1408.47,512.079 1408.82,514.818L1412.01,540.543C1408.75,541.148 1405.45,541.652 1402.12,542.052ZM1431.63,535.577L1422.69,509.194C1421.81,506.58 1423.21,503.739 1425.83,502.854C1428.44,501.968 1431.28,503.371 1432.16,505.984L1441.05,532.199C1437.96,533.421 1434.82,534.548 1431.63,535.577ZM1296.12,517.029L1310.02,494.172C1311.45,491.814 1314.53,491.064 1316.89,492.498C1319.25,493.932 1320,497.01 1318.57,499.368L1304.63,522.286C1301.73,520.621 1298.89,518.866 1296.12,517.029ZM1512.97,475.038L1490,458.04C1487.79,456.398 1487.32,453.265 1488.96,451.046C1490.6,448.828 1493.73,448.36 1495.95,450.001L1518.41,466.623C1516.69,469.489 1514.87,472.296 1512.97,475.038ZM1233.13,434.557L1260.12,422.41C1262.63,421.277 1265.6,422.401 1266.73,424.917C1267.86,427.434 1266.74,430.396 1264.22,431.529L1236.56,443.98C1235.32,440.887 1234.17,437.746 1233.13,434.557ZM1536.26,347.086C1537.06,350.308 1537.77,353.568 1538.37,356.863L1511.76,363.138C1509.08,363.772 1506.38,362.105 1505.75,359.42C1505.11,356.734 1506.78,354.039 1509.46,353.405L1536.26,347.086ZM1252.71,296.494L1276.49,312.048C1278.8,313.559 1279.45,316.66 1277.94,318.97C1276.43,321.279 1273.33,321.928 1271.02,320.417L1247.34,304.926C1249.04,302.054 1250.84,299.242 1252.71,296.494ZM1268.23,277.202L1287.57,291.424C1289.79,293.059 1290.27,296.192 1288.63,298.414C1287,300.637 1283.86,301.114 1281.64,299.479L1261.59,284.725C1263.72,282.148 1265.94,279.639 1268.23,277.202ZM1474.34,256.597C1477.06,258.529 1479.72,260.544 1482.31,262.643L1465.02,284.442C1463.3,286.604 1460.15,286.966 1457.99,285.251C1455.83,283.536 1455.47,280.388 1457.18,278.226L1474.34,256.597ZM1447.56,241.277C1450.61,242.646 1453.61,244.11 1456.55,245.659L1444.36,268.524C1443.06,270.959 1440.03,271.881 1437.59,270.583C1435.16,269.284 1434.24,266.253 1435.54,263.818L1447.56,241.277ZM1347.73,231.536L1354.77,256.636C1355.51,259.293 1353.96,262.055 1351.3,262.8C1348.64,263.546 1345.88,261.994 1345.14,259.336L1338.06,234.083C1341.24,233.135 1344.46,232.285 1347.73,231.536Z" style="fill:rgb(253,153,9);"/>
                </g>
                <g transform="matrix(0.676994,0,0,0.670184,595.734,981.856)">
                    <g transform="matrix(1,0,0,1,-111.727,12.8484)">
                        <circle cx="1494.85" cy="372.517" r="157.821" style="fill:rgb(255,207,132);"/>
                    </g>
                    <g transform="matrix(0.811681,0,0,0.811681,169.781,83.0003)">
                        <path d="M1494.85,220.856C1578.55,220.856 1646.51,288.813 1646.51,372.517C1646.51,456.221 1578.55,524.178 1494.85,524.178C1491.45,524.178 1488.69,526.938 1488.69,530.338C1488.69,533.738 1491.45,536.498 1494.85,536.498C1585.35,536.498 1658.83,463.021 1658.83,372.517C1658.83,282.013 1585.35,208.536 1494.85,208.536C1491.45,208.536 1488.69,211.296 1488.69,214.696C1488.69,218.096 1491.45,220.856 1494.85,220.856Z" style="fill:rgb(253,153,9);"/>
                    </g>
                    <g transform="matrix(0.811681,0,0,0.811681,169.781,83.0003)">
                        <path d="M1494.85,524.178C1411.14,524.178 1343.18,456.221 1343.18,372.517C1343.18,288.813 1411.14,220.856 1494.85,220.856C1498.25,220.856 1501.01,218.096 1501.01,214.696C1501.01,211.296 1498.25,208.536 1494.85,208.536C1404.34,208.536 1330.87,282.013 1330.87,372.517C1330.87,463.021 1404.34,536.498 1494.85,536.498C1498.25,536.498 1501.01,533.738 1501.01,530.338C1501.01,526.938 1498.25,524.178 1494.85,524.178Z" style="fill:rgb(253,153,9);"/>
                    </g>
                    <path d="M1402.12,542.052L1398.89,516.051C1398.55,513.312 1400.5,510.813 1403.24,510.472C1405.98,510.132 1408.47,512.079 1408.82,514.818L1412.01,540.543C1408.75,541.148 1405.45,541.652 1402.12,542.052ZM1431.63,535.577L1422.69,509.194C1421.81,506.58 1423.21,503.739 1425.83,502.854C1428.44,501.968 1431.28,503.371 1432.16,505.984L1441.05,532.199C1437.96,533.421 1434.82,534.548 1431.63,535.577ZM1296.12,517.029L1310.02,494.172C1311.45,491.814 1314.53,491.064 1316.89,492.498C1319.25,493.932 1320,497.01 1318.57,499.368L1304.63,522.286C1301.73,520.621 1298.89,518.866 1296.12,517.029ZM1512.97,475.038L1490,458.04C1487.79,456.398 1487.32,453.265 1488.96,451.046C1490.6,448.828 1493.73,448.36 1495.95,450.001L1518.41,466.623C1516.69,469.489 1514.87,472.296 1512.97,475.038ZM1233.13,434.557L1260.12,422.41C1262.63,421.277 1265.6,422.401 1266.73,424.917C1267.86,427.434 1266.74,430.396 1264.22,431.529L1236.56,443.98C1235.32,440.887 1234.17,437.746 1233.13,434.557ZM1536.26,347.086C1537.06,350.308 1537.77,353.568 1538.37,356.863L1511.76,363.138C1509.08,363.772 1506.38,362.105 1505.75,359.42C1505.11,356.734 1506.78,354.039 1509.46,353.405L1536.26,347.086ZM1252.71,296.494L1276.49,312.048C1278.8,313.559 1279.45,316.66 1277.94,318.97C1276.43,321.279 1273.33,321.928 1271.02,320.417L1247.34,304.926C1249.04,302.054 1250.84,299.242 1252.71,296.494ZM1268.23,277.202L1287.57,291.424C1289.79,293.059 1290.27,296.192 1288.63,298.414C1287,300.637 1283.86,301.114 1281.64,299.479L1261.59,284.725C1263.72,282.148 1265.94,279.639 1268.23,277.202ZM1474.34,256.597C1477.06,258.529 1479.72,260.544 1482.31,262.643L1465.02,284.442C1463.3,286.604 1460.15,286.966 1457.99,285.251C1455.83,283.536 1455.47,280.388 1457.18,278.226L1474.34,256.597ZM1447.56,241.277C1450.61,242.646 1453.61,244.11 1456.55,245.659L1444.36,268.524C1443.06,270.959 1440.03,271.881 1437.59,270.583C1435.16,269.284 1434.24,266.253 1435.54,263.818L1447.56,241.277ZM1347.73,231.536L1354.77,256.636C1355.51,259.293 1353.96,262.055 1351.3,262.8C1348.64,263.546 1345.88,261.994 1345.14,259.336L1338.06,234.083C1341.24,233.135 1344.46,232.285 1347.73,231.536Z" style="fill:rgb(253,153,9);"/>
                </g>
                <g>
                    <g transform="matrix(0.676994,0,0,0.670184,80.3687,178.061)">
                        <g transform="matrix(1,0,0,1,-111.727,12.8484)">
                            <circle cx="1494.85" cy="372.517" r="157.821" style="fill:rgb(255,207,132);"/>
                        </g>
                        <g transform="matrix(0.811681,0,0,0.811681,169.781,83.0003)">
                            <path d="M1494.85,220.856C1578.55,220.856 1646.51,288.813 1646.51,372.517C1646.51,456.221 1578.55,524.178 1494.85,524.178C1491.45,524.178 1488.69,526.938 1488.69,530.338C1488.69,533.738 1491.45,536.498 1494.85,536.498C1585.35,536.498 1658.83,463.021 1658.83,372.517C1658.83,282.013 1585.35,208.536 1494.85,208.536C1491.45,208.536 1488.69,211.296 1488.69,214.696C1488.69,218.096 1491.45,220.856 1494.85,220.856Z" style="fill:rgb(253,153,9);"/>
                        </g>
                        <g transform="matrix(0.811681,0,0,0.811681,169.781,83.0003)">
                            <path d="M1494.85,524.178C1411.14,524.178 1343.18,456.221 1343.18,372.517C1343.18,288.813 1411.14,220.856 1494.85,220.856C1498.25,220.856 1501.01,218.096 1501.01,214.696C1501.01,211.296 1498.25,208.536 1494.85,208.536C1404.34,208.536 1330.87,282.013 1330.87,372.517C1330.87,463.021 1404.34,536.498 1494.85,536.498C1498.25,536.498 1501.01,533.738 1501.01,530.338C1501.01,526.938 1498.25,524.178 1494.85,524.178Z" style="fill:rgb(253,153,9);"/>
                        </g>
                        <path d="M1402.12,542.052L1398.89,516.051C1398.55,513.312 1400.5,510.813 1403.24,510.472C1405.98,510.132 1408.47,512.079 1408.82,514.818L1412.01,540.543C1408.75,541.148 1405.45,541.652 1402.12,542.052ZM1431.63,535.577L1422.69,509.194C1421.81,506.58 1423.21,503.739 1425.83,502.854C1428.44,501.968 1431.28,503.371 1432.16,505.984L1441.05,532.199C1437.96,533.421 1434.82,534.548 1431.63,535.577ZM1296.12,517.029L1310.02,494.172C1311.45,491.814 1314.53,491.064 1316.89,492.498C1319.25,493.932 1320,497.01 1318.57,499.368L1304.63,522.286C1301.73,520.621 1298.89,518.866 1296.12,517.029ZM1512.97,475.038L1490,458.04C1487.79,456.398 1487.32,453.265 1488.96,451.046C1490.6,448.828 1493.73,448.36 1495.95,450.001L1518.41,466.623C1516.69,469.489 1514.87,472.296 1512.97,475.038ZM1233.13,434.557L1260.12,422.41C1262.63,421.277 1265.6,422.401 1266.73,424.917C1267.86,427.434 1266.74,430.396 1264.22,431.529L1236.56,443.98C1235.32,440.887 1234.17,437.746 1233.13,434.557ZM1536.26,347.086C1537.06,350.308 1537.77,353.568 1538.37,356.863L1511.76,363.138C1509.08,363.772 1506.38,362.105 1505.75,359.42C1505.11,356.734 1506.78,354.039 1509.46,353.405L1536.26,347.086ZM1252.71,296.494L1276.49,312.048C1278.8,313.559 1279.45,316.66 1277.94,318.97C1276.43,321.279 1273.33,321.928 1271.02,320.417L1247.34,304.926C1249.04,302.054 1250.84,299.242 1252.71,296.494ZM1268.23,277.202L1287.57,291.424C1289.79,293.059 1290.27,296.192 1288.63,298.414C1287,300.637 1283.86,301.114 1281.64,299.479L1261.59,284.725C1263.72,282.148 1265.94,279.639 1268.23,277.202ZM1474.34,256.597C1477.06,258.529 1479.72,260.544 1482.31,262.643L1465.02,284.442C1463.3,286.604 1460.15,286.966 1457.99,285.251C1455.83,283.536 1455.47,280.388 1457.18,278.226L1474.34,256.597ZM1447.56,241.277C1450.61,242.646 1453.61,244.11 1456.55,245.659L1444.36,268.524C1443.06,270.959 1440.03,271.881 1437.59,270.583C1435.16,269.284 1434.24,266.253 1435.54,263.818L1447.56,241.277ZM1347.73,231.536L1354.77,256.636C1355.51,259.293 1353.96,262.055 1351.3,262.8C1348.64,263.546 1345.88,261.994 1345.14,259.336L1338.06,234.083C1341.24,233.135 1344.46,232.285 1347.73,231.536Z" style="fill:rgb(253,153,9);"/>
                    </g>
                    <g transform="matrix(0.676994,0,0,0.670184,-280.401,567.107)">
                        <g transform="matrix(1,0,0,1,-111.727,12.8484)">
                            <circle cx="1494.85" cy="372.517" r="157.821" style="fill:rgb(255,207,132);"/>
                        </g>
                        <g transform="matrix(0.811681,0,0,0.811681,169.781,83.0003)">
                            <path d="M1494.85,220.856C1578.55,220.856 1646.51,288.813 1646.51,372.517C1646.51,456.221 1578.55,524.178 1494.85,524.178C1491.45,524.178 1488.69,526.938 1488.69,530.338C1488.69,533.738 1491.45,536.498 1494.85,536.498C1585.35,536.498 1658.83,463.021 1658.83,372.517C1658.83,282.013 1585.35,208.536 1494.85,208.536C1491.45,208.536 1488.69,211.296 1488.69,214.696C1488.69,218.096 1491.45,220.856 1494.85,220.856Z" style="fill:rgb(253,153,9);"/>
                        </g>
                        <g transform="matrix(0.811681,0,0,0.811681,169.781,83.0003)">
                            <path d="M1494.85,524.178C1411.14,524.178 1343.18,456.221 1343.18,372.517C1343.18,288.813 1411.14,220.856 1494.85,220.856C1498.25,220.856 1501.01,218.096 1501.01,214.696C1501.01,211.296 1498.25,208.536 1494.85,208.536C1404.34,208.536 1330.87,282.013 1330.87,372.517C1330.87,463.021 1404.34,536.498 1494.85,536.498C1498.25,536.498 1501.01,533.738 1501.01,530.338C1501.01,526.938 1498.25,524.178 1494.85,524.178Z" style="fill:rgb(253,153,9);"/>
                        </g>
                        <path d="M1402.12,542.052L1398.89,516.051C1398.55,513.312 1400.5,510.813 1403.24,510.472C1405.98,510.132 1408.47,512.079 1408.82,514.818L1412.01,540.543C1408.75,541.148 1405.45,541.652 1402.12,542.052ZM1431.63,535.577L1422.69,509.194C1421.81,506.58 1423.21,503.739 1425.83,502.854C1428.44,501.968 1431.28,503.371 1432.16,505.984L1441.05,532.199C1437.96,533.421 1434.82,534.548 1431.63,535.577ZM1296.12,517.029L1310.02,494.172C1311.45,491.814 1314.53,491.064 1316.89,492.498C1319.25,493.932 1320,497.01 1318.57,499.368L1304.63,522.286C1301.73,520.621 1298.89,518.866 1296.12,517.029ZM1512.97,475.038L1490,458.04C1487.79,456.398 1487.32,453.265 1488.96,451.046C1490.6,448.828 1493.73,448.36 1495.95,450.001L1518.41,466.623C1516.69,469.489 1514.87,472.296 1512.97,475.038ZM1233.13,434.557L1260.12,422.41C1262.63,421.277 1265.6,422.401 1266.73,424.917C1267.86,427.434 1266.74,430.396 1264.22,431.529L1236.56,443.98C1235.32,440.887 1234.17,437.746 1233.13,434.557ZM1536.26,347.086C1537.06,350.308 1537.77,353.568 1538.37,356.863L1511.76,363.138C1509.08,363.772 1506.38,362.105 1505.75,359.42C1505.11,356.734 1506.78,354.039 1509.46,353.405L1536.26,347.086ZM1252.71,296.494L1276.49,312.048C1278.8,313.559 1279.45,316.66 1277.94,318.97C1276.43,321.279 1273.33,321.928 1271.02,320.417L1247.34,304.926C1249.04,302.054 1250.84,299.242 1252.71,296.494ZM1268.23,277.202L1287.57,291.424C1289.79,293.059 1290.27,296.192 1288.63,298.414C1287,300.637 1283.86,301.114 1281.64,299.479L1261.59,284.725C1263.72,282.148 1265.94,279.639 1268.23,277.202ZM1474.34,256.597C1477.06,258.529 1479.72,260.544 1482.31,262.643L1465.02,284.442C1463.3,286.604 1460.15,286.966 1457.99,285.251C1455.83,283.536 1455.47,280.388 1457.18,278.226L1474.34,256.597ZM1447.56,241.277C1450.61,242.646 1453.61,244.11 1456.55,245.659L1444.36,268.524C1443.06,270.959 1440.03,271.881 1437.59,270.583C1435.16,269.284 1434.24,266.253 1435.54,263.818L1447.56,241.277ZM1347.73,231.536L1354.77,256.636C1355.51,259.293 1353.96,262.055 1351.3,262.8C1348.64,263.546 1345.88,261.994 1345.14,259.336L1338.06,234.083C1341.24,233.135 1344.46,232.285 1347.73,231.536Z" style="fill:rgb(253,153,9);"/>
                    </g>
                    <g transform="matrix(0.676994,0,0,0.670184,1179.48,424.082)">
                        <g transform="matrix(1,0,0,1,-111.727,12.8484)">
                            <circle cx="1494.85" cy="372.517" r="157.821" style="fill:rgb(255,207,132);"/>
                        </g>
                        <g transform="matrix(0.811681,0,0,0.811681,169.781,83.0003)">
                            <path d="M1494.85,220.856C1578.55,220.856 1646.51,288.813 1646.51,372.517C1646.51,456.221 1578.55,524.178 1494.85,524.178C1491.45,524.178 1488.69,526.938 1488.69,530.338C1488.69,533.738 1491.45,536.498 1494.85,536.498C1585.35,536.498 1658.83,463.021 1658.83,372.517C1658.83,282.013 1585.35,208.536 1494.85,208.536C1491.45,208.536 1488.69,211.296 1488.69,214.696C1488.69,218.096 1491.45,220.856 1494.85,220.856Z" style="fill:rgb(253,153,9);"/>
                        </g>
                        <g transform="matrix(0.811681,0,0,0.811681,169.781,83.0003)">
                            <path d="M1494.85,524.178C1411.14,524.178 1343.18,456.221 1343.18,372.517C1343.18,288.813 1411.14,220.856 1494.85,220.856C1498.25,220.856 1501.01,218.096 1501.01,214.696C1501.01,211.296 1498.25,208.536 1494.85,208.536C1404.34,208.536 1330.87,282.013 1330.87,372.517C1330.87,463.021 1404.34,536.498 1494.85,536.498C1498.25,536.498 1501.01,533.738 1501.01,530.338C1501.01,526.938 1498.25,524.178 1494.85,524.178Z" style="fill:rgb(253,153,9);"/>
                        </g>
                        <path d="M1402.12,542.052L1398.89,516.051C1398.55,513.312 1400.5,510.813 1403.24,510.472C1405.98,510.132 1408.47,512.079 1408.82,514.818L1412.01,540.543C1408.75,541.148 1405.45,541.652 1402.12,542.052ZM1431.63,535.577L1422.69,509.194C1421.81,506.58 1423.21,503.739 1425.83,502.854C1428.44,501.968 1431.28,503.371 1432.16,505.984L1441.05,532.199C1437.96,533.421 1434.82,534.548 1431.63,535.577ZM1296.12,517.029L1310.02,494.172C1311.45,491.814 1314.53,491.064 1316.89,492.498C1319.25,493.932 1320,497.01 1318.57,499.368L1304.63,522.286C1301.73,520.621 1298.89,518.866 1296.12,517.029ZM1512.97,475.038L1490,458.04C1487.79,456.398 1487.32,453.265 1488.96,451.046C1490.6,448.828 1493.73,448.36 1495.95,450.001L1518.41,466.623C1516.69,469.489 1514.87,472.296 1512.97,475.038ZM1233.13,434.557L1260.12,422.41C1262.63,421.277 1265.6,422.401 1266.73,424.917C1267.86,427.434 1266.74,430.396 1264.22,431.529L1236.56,443.98C1235.32,440.887 1234.17,437.746 1233.13,434.557ZM1536.26,347.086C1537.06,350.308 1537.77,353.568 1538.37,356.863L1511.76,363.138C1509.08,363.772 1506.38,362.105 1505.75,359.42C1505.11,356.734 1506.78,354.039 1509.46,353.405L1536.26,347.086ZM1252.71,296.494L1276.49,312.048C1278.8,313.559 1279.45,316.66 1277.94,318.97C1276.43,321.279 1273.33,321.928 1271.02,320.417L1247.34,304.926C1249.04,302.054 1250.84,299.242 1252.71,296.494ZM1268.23,277.202L1287.57,291.424C1289.79,293.059 1290.27,296.192 1288.63,298.414C1287,300.637 1283.86,301.114 1281.64,299.479L1261.59,284.725C1263.72,282.148 1265.94,279.639 1268.23,277.202ZM1474.34,256.597C1477.06,258.529 1479.72,260.544 1482.31,262.643L1465.02,284.442C1463.3,286.604 1460.15,286.966 1457.99,285.251C1455.83,283.536 1455.47,280.388 1457.18,278.226L1474.34,256.597ZM1447.56,241.277C1450.61,242.646 1453.61,244.11 1456.55,245.659L1444.36,268.524C1443.06,270.959 1440.03,271.881 1437.59,270.583C1435.16,269.284 1434.24,266.253 1435.54,263.818L1447.56,241.277ZM1347.73,231.536L1354.77,256.636C1355.51,259.293 1353.96,262.055 1351.3,262.8C1348.64,263.546 1345.88,261.994 1345.14,259.336L1338.06,234.083C1341.24,233.135 1344.46,232.285 1347.73,231.536Z" style="fill:rgb(253,153,9);"/>
                    </g>
                </g>
            </g>
            <g id="CROSSES">
                <path d="M1734.8,553.494L1734.8,536.811C1734.8,534.051 1737.04,531.811 1739.8,531.811C1742.56,531.811 1744.8,534.051 1744.8,536.811L1744.8,553.494L1761.48,553.494C1764.24,553.494 1766.48,555.734 1766.48,558.494C1766.48,561.253 1764.24,563.494 1761.48,563.494L1744.8,563.494L1744.8,580.177C1744.8,582.936 1742.56,585.177 1739.8,585.177C1737.04,585.177 1734.8,582.936 1734.8,580.177L1734.8,563.494L1718.11,563.494C1715.35,563.494 1713.11,561.253 1713.11,558.494C1713.11,555.734 1715.35,553.494 1718.11,553.494L1734.8,553.494Z" style="fill:rgb(253,149,0);"/>
                <g transform="matrix(1,0,0,1,-815.607,189.247)">
                    <path d="M1734.8,553.494L1734.8,536.811C1734.8,534.051 1737.04,531.811 1739.8,531.811C1742.56,531.811 1744.8,534.051 1744.8,536.811L1744.8,553.494L1761.48,553.494C1764.24,553.494 1766.48,555.734 1766.48,558.494C1766.48,561.253 1764.24,563.494 1761.48,563.494L1744.8,563.494L1744.8,580.177C1744.8,582.936 1742.56,585.177 1739.8,585.177C1737.04,585.177 1734.8,582.936 1734.8,580.177L1734.8,563.494L1718.11,563.494C1715.35,563.494 1713.11,561.253 1713.11,558.494C1713.11,555.734 1715.35,553.494 1718.11,553.494L1734.8,553.494Z" style="fill:rgb(253,149,0);"/>
                </g>
                <g transform="matrix(1,0,0,1,326.525,360.296)">
                    <path d="M1734.8,553.494L1734.8,536.811C1734.8,534.051 1737.04,531.811 1739.8,531.811C1742.56,531.811 1744.8,534.051 1744.8,536.811L1744.8,553.494L1761.48,553.494C1764.24,553.494 1766.48,555.734 1766.48,558.494C1766.48,561.253 1764.24,563.494 1761.48,563.494L1744.8,563.494L1744.8,580.177C1744.8,582.936 1742.56,585.177 1739.8,585.177C1737.04,585.177 1734.8,582.936 1734.8,580.177L1734.8,563.494L1718.11,563.494C1715.35,563.494 1713.11,561.253 1713.11,558.494C1713.11,555.734 1715.35,553.494 1718.11,553.494L1734.8,553.494Z" style="fill:rgb(253,149,0);"/>
                </g>
            </g>
        </g>
    </g>
</svg>
