<svg width="98" height="56" viewBox="0 0 98 56" fill="none" xmlns="http://www.w3.org/2000/svg">
<path d="M2 49C6.69441 45.5859 6.40049 46.8099 10.5556 49.7778C11.4911 50.446 15.0496 54.4004 16 53.5556C19.64 50.32 21.8365 34.1207 26 41.5556C28.1954 45.4759 35.1278 52.803 38.7778 45.2222C40.0429 42.5946 45.1682 32.825 47 30.5C49.7859 26.964 48.9788 36.8677 51.5 39.3889C55.9726 43.8615 60.8278 38.436 64.5 34.4444C67.2778 31.4251 69.4263 23.508 71 18C72.0139 14.4512 75.0961 25.2756 76 25.7778C82.0653 29.1474 80.8761 26.5814 86 22.5556C88.803 20.3532 94.9497 5.10069 96.5 2" stroke="#1ACB97" stroke-width="3" stroke-linecap="round"/>
</svg>
